<?xml version="1.0" standalone="no"?><!DOCTYPE svg PUBLIC "-//W3C//DTD SVG 1.1//EN" "http://www.w3.org/Graphics/SVG/1.1/DTD/svg11.dtd"><svg t="1512219548079" class="icon" style="" viewBox="0 0 1303 1024" version="1.1" xmlns="http://www.w3.org/2000/svg" p-id="1503" xmlns:xlink="http://www.w3.org/1999/xlink" width="20.359375" height="16"><defs><style type="text/css"></style></defs><path d="M545.791733 0c-282.809035 0-512 229.286541-512 512s229.286541 512 512 512S1057.791733 794.809035 1057.791733 512 828.600768 0 545.791733 0z m166.206459 596.775807c0 71.586336-239.799888 82.290834-311.099496 31.922345-12.424865-8.697405-19.784208-19.49748-19.784207-31.922345v-72.350942c0-7.263767 7.359343-12.233713 14.049654-9.366437l84.393504 35.171925L536.234145 574.028747c6.403584 2.676125 12.902744 2.676125 19.401904 0L697.757386 514.580549c6.690312-2.867276 14.240806 2.007094 14.240806 9.366436v72.828822z m130.269928-153.112563L555.444898 563.5154c-6.49916 2.771701-12.902744 2.771701-19.401904 0l-49.412732-20.548814L325.011446 475.298861c-4.205339-1.815942-8.697405 1.242486-8.697405 5.830129v62.602203c0 0.573455 0.191152 1.051335 0.669031 1.529214 1.242486 1.338062 2.007094 1.051335 3.536308 0.191152 7.359343-4.300915 8.315102 5.256674 8.410677 10.322195 0 3.918611-0.860183 8.792981-2.389397 12.424865-0.191152 0.477879 0 1.051335 0.47788 1.051334 4.300915 0.955759 4.014187 6.977039 0.286727 7.932799-0.477879 0.095576-0.764607 0.669031-0.477879 1.14691 17.108083 29.532948 24.563002 72.064215-4.205339 97.00952-1.051335 0.955759-1.529214 0.477879-1.529214-0.669031 0.573455-3.24958 1.051335-6.403584 1.338062-9.462012 1.242486-11.660258-0.477879-11.37353-4.014187-0.47788-2.389397 7.263767-5.256674 14.527534-8.697405 19.019601-0.764607 1.051335-1.720366 0.669031-1.815942-0.573455-0.860183-6.594736-1.338062-12.99832-2.007093-19.49748-1.242486-14.527534-3.058428-16.821355-3.72746-4.778794-0.382304 3.918611-0.477879 8.12395-0.669031 12.52044 0 2.007094-0.669031 3.24958-1.338062 0.382304-0.669031-2.771701-1.338062-5.352249-2.007094-8.028374-1.529214-6.116856-3.058428-6.977039-2.676125 2.007093 0.095576 2.867276 0.382304 5.925705 0.669032 9.175285 0.095576 1.242486-0.573455 1.529214-1.433639 0.764607-27.239126-24.085122-27.908158-62.219899-3.154004-99.016614 0.382304-0.382304 0.191152-1.051335-0.477879-1.14691-4.683218-1.051335-4.205339-7.454919 0.477879-8.028375 0.573455 0 0.764607-0.477879 0.669031-1.051334-1.146911-3.536308-1.815942-7.454919-1.720365-11.37353 0.095576-4.587642 2.198245-15.674445 8.984132-12.424865 1.529214 0.669031 1.720366 0.764607 3.058429 0.095576 0.955759-0.286728 1.338062-1.051335 1.338062-2.102669V470.806795c0-2.580549-1.433638-4.778794-3.727459-5.830129l-51.133097-21.313422c-8.12395-3.345156-7.550495-15.196565 1.051334-17.681538l288.352437-85.253687c4.778794-1.529214 9.366436-1.529214 14.240806 0l105.037894 31.062162L841.312361 425.88613c8.506254 2.580549 9.175285 14.431958 0.955759 17.777114z" p-id="1504" fill="#ffffff"></path></svg>